# xmcd
#
# Track frame offsets:
#	150
#	17068
#	31916
#	50056
#	69661
#	84758
#	97725
#	108115
#	121300
#	138269
#	152085
#	166049
#	183250
#	194445
#	203785
#
# Disc length: 2909 seconds
#
# Revision: 1
# Processed by: cddbd v1.5.2PL0 Copyright (c) Steve Scherf et al.
# Submitted via: FairStars CD Ripper 1.30
#
DISCID=b60b5b0f
DTITLE=Malene Mortensen - Malene to all of you
DYEAR=2007
DGENRE=Jazz
TTITLE0=I've Got My Love To Keep Warm (Irving Berlin)
TTITLE1=Driving Home For Christmas (Chris Rea)
TTITLE2=Once Upon A Christmas Song (Christine Skou)
TTITLE3=Silent Night (public domain)
TTITLE4=Winter Wonderland (Bernard Smith)
TTITLE5=The Christmas Waltz (Styne Cahn)
TTITLE6=Jingle Bells Rock (Bobby Helms)
TTITLE7=This Christmas (Danny Hathaway)
TTITLE8=We've Only Just Begun (Nichols Williams)
TTITLE9=Santa Clause Is Coming To Town (Coots Gillespie)
TTITLE10=The Christmas Song (Tormé Wells)
TTITLE11=Last Christmas (George Michael)
TTITLE12=Warm December (Sidney Keith Russell)
TTITLE13=Let It Snow (Cahn Styne)
TTITLE14=Maria Gennem Torne Gar (public domain)
EXTD=YEAR: 2007
EXTT0=
EXTT1=
EXTT2=
EXTT3=
EXTT4=
EXTT5=
EXTT6=
EXTT7=
EXTT8=
EXTT9=
EXTT10=
EXTT11=
EXTT12=
EXTT13=
EXTT14=
PLAYORDER=
